<svg xmlns="http://www.w3.org/2000/svg" viewBox="0 0 64 64" width="64" height="64">
  <defs>
    <linearGradient id="boxGrad" x1="0%" y1="0%" x2="100%" y2="100%">
      <stop offset="0%" style="stop-color:#3b82f6"/>
      <stop offset="100%" style="stop-color:#1d4ed8"/>
    </linearGradient>
    <linearGradient id="topGrad" x1="0%" y1="0%" x2="0%" y2="100%">
      <stop offset="0%" style="stop-color:#60a5fa"/>
      <stop offset="100%" style="stop-color:#3b82f6"/>
    </linearGradient>
  </defs>
  
  <!-- Box body -->
  <path d="M8 24 L8 52 L32 60 L56 52 L56 24 L32 32 Z" fill="url(#boxGrad)"/>
  
  <!-- Box top/lid -->
  <path d="M8 24 L32 16 L56 24 L32 32 Z" fill="url(#topGrad)"/>
  
  <!-- Box left side highlight -->
  <path d="M8 24 L8 52 L32 60 L32 32 Z" fill="#2563eb" opacity="0.9"/>
  
  <!-- Center line -->
  <line x1="32" y1="32" x2="32" y2="60" stroke="#1e40af" stroke-width="1" opacity="0.5"/>
  
  <!-- Checkmark circle background -->
  <circle cx="46" cy="18" r="14" fill="#10b981"/>
  <circle cx="46" cy="18" r="11" fill="#059669"/>
  
  <!-- Checkmark -->
  <path d="M39 18 L44 23 L53 12" stroke="white" stroke-width="3.5" stroke-linecap="round" stroke-linejoin="round" fill="none"/>
  
  <!-- Barcode lines on box front -->
  <g opacity="0.3">
    <rect x="18" y="38" width="2" height="12" fill="white"/>
    <rect x="22" y="38" width="1" height="12" fill="white"/>
    <rect x="25" y="38" width="3" height="12" fill="white"/>
    <rect x="30" y="38" width="1" height="12" fill="white"/>
    <rect x="33" y="38" width="2" height="12" fill="white"/>
    <rect x="37" y="38" width="1" height="12" fill="white"/>
    <rect x="40" y="38" width="2" height="12" fill="white"/>
    <rect x="44" y="38" width="1" height="12" fill="white"/>
  </g>
</svg>

